<svg width="21" height="22" viewBox="0 0 21 22" fill="none" xmlns="http://www.w3.org/2000/svg">
<path d="M18.75 0.136719C19.9688 0.136719 21 1.16797 21 2.38672V18.8867C21 20.1523 19.9688 21.1367 18.75 21.1367H12.2812V14.0117H15L15.5156 10.6367H12.2812V8.48047C12.2812 7.54297 12.75 6.65234 14.2031 6.65234H15.6562V3.79297C15.6562 3.79297 14.3438 3.55859 13.0312 3.55859C10.4062 3.55859 8.67188 5.19922 8.67188 8.10547V10.6367H5.71875V14.0117H8.67188V21.1367H2.25C0.984375 21.1367 0 20.1523 0 18.8867V2.38672C0 1.16797 0.984375 0.136719 2.25 0.136719H18.75Z" fill="white"/>
</svg>
