<svg width="348" height="63" viewBox="0 0 348 63" fill="none" xmlns="http://www.w3.org/2000/svg">
<path fill-rule="evenodd" clip-rule="evenodd" d="M37.0488 15.6592H47.4883V26.0986V26.0986V36.5381H37.0488V26.0986V26.0986V15.6592ZM26.6094 26.0986H16.1699V36.5381H26.6094V26.0986ZM26.6094 36.5381H37.0488V46.9776H26.6094V36.5381ZM47.4883 36.5381H37.0488V46.9776H47.4883V36.5381Z" fill="white"/>
<path fill-rule="evenodd" clip-rule="evenodd" d="M121.246 15.6592H110.807V26.0986H121.246V36.5381H131.686V26.0986H121.246V15.6592ZM131.686 26.0986H142.125V36.5381H131.686V26.0986ZM121.246 36.5381H110.807V46.9776H121.246H121.246H131.686V36.5381H121.246H121.246Z" fill="white"/>
<path fill-rule="evenodd" clip-rule="evenodd" d="M226.322 15.6592H215.883V26.0986H226.322V36.5381H236.762V26.0986H226.322V15.6592ZM226.322 36.5381H236.762V46.9776H226.322H226.322H215.883V36.5381H226.322H226.322ZM215.883 36.5381H205.443V46.9776H215.883V36.5381Z" fill="white"/>
<path fill-rule="evenodd" clip-rule="evenodd" d="M310.52 15.6592H300.08V26.0986H310.52V15.6592ZM310.52 26.0986H320.959V15.6592H331.398V26.0986V26.0986V36.5381H320.959H320.959H310.52V26.0986ZM310.52 36.5381H320.959V46.9776H310.52V36.5381Z" fill="white"/>
</svg>
