<svg width="22" height="22" viewBox="0 0 22 22" fill="none" xmlns="http://www.w3.org/2000/svg">
<path d="M11.5 5.24609C14.4531 5.24609 16.8906 7.68359 16.8906 10.6367C16.8906 13.6367 14.4531 16.0273 11.5 16.0273C8.5 16.0273 6.10938 13.6367 6.10938 10.6367C6.10938 7.68359 8.5 5.24609 11.5 5.24609ZM11.5 14.1523C13.4219 14.1523 14.9688 12.6055 14.9688 10.6367C14.9688 8.71484 13.4219 7.16797 11.5 7.16797C9.53125 7.16797 7.98438 8.71484 7.98438 10.6367C7.98438 12.6055 9.57812 14.1523 11.5 14.1523ZM18.3438 5.05859C18.3438 4.35547 17.7812 3.79297 17.0781 3.79297C16.375 3.79297 15.8125 4.35547 15.8125 5.05859C15.8125 5.76172 16.375 6.32422 17.0781 6.32422C17.7812 6.32422 18.3438 5.76172 18.3438 5.05859ZM21.9062 6.32422C22 8.05859 22 13.2617 21.9062 14.9961C21.8125 16.6836 21.4375 18.1367 20.2188 19.4023C19 20.6211 17.5 20.9961 15.8125 21.0898C14.0781 21.1836 8.875 21.1836 7.14062 21.0898C5.45312 20.9961 4 20.6211 2.73438 19.4023C1.51562 18.1367 1.14062 16.6836 1.04688 14.9961C0.953125 13.2617 0.953125 8.05859 1.04688 6.32422C1.14062 4.63672 1.51562 3.13672 2.73438 1.91797C4 0.699219 5.45312 0.324219 7.14062 0.230469C8.875 0.136719 14.0781 0.136719 15.8125 0.230469C17.5 0.324219 19 0.699219 20.2188 1.91797C21.4375 3.13672 21.8125 4.63672 21.9062 6.32422ZM19.6562 16.8242C20.2188 15.4648 20.0781 12.1836 20.0781 10.6367C20.0781 9.13672 20.2188 5.85547 19.6562 4.44922C19.2812 3.55859 18.5781 2.80859 17.6875 2.48047C16.2812 1.91797 13 2.05859 11.5 2.05859C9.95312 2.05859 6.67188 1.91797 5.3125 2.48047C4.375 2.85547 3.67188 3.55859 3.29688 4.44922C2.73438 5.85547 2.875 9.13672 2.875 10.6367C2.875 12.1836 2.73438 15.4648 3.29688 16.8242C3.67188 17.7617 4.375 18.4648 5.3125 18.8398C6.67188 19.4023 9.95312 19.2617 11.5 19.2617C13 19.2617 16.2812 19.4023 17.6875 18.8398C18.5781 18.4648 19.3281 17.7617 19.6562 16.8242Z" fill="white"/>
</svg>
