<svg width="254" height="20" viewBox="0 0 254 20" fill="none" xmlns="http://www.w3.org/2000/svg">
<path fill-rule="evenodd" clip-rule="evenodd" d="M0 0H6.59628V6.59627H0V0ZM13.1934 6.59627H19.7896V13.1925H13.1934V6.59627ZM6.59628 13.1925H0V19.7888H6.59628V13.1925ZM6.59692 6.59627H13.1932V13.1925H6.59692V6.59627ZM13.1932 19.7888V13.1925H6.59692V19.7888H13.1932ZM232.969 19.7888L227.903 1.13454H230.489L234.737 17.8099L238.8 1.13454H242.309L246.373 17.8099L250.621 1.13454H253.101L248.035 19.7888H244.552L240.489 3.3245L236.425 19.7888H232.969ZM202.235 18.7599C203.536 19.5866 205.155 20 207.09 20C209.025 20 210.634 19.5866 211.918 18.7599C213.22 17.9332 214.196 16.7986 214.847 15.3562C215.515 13.9138 215.85 12.2868 215.85 10.475C215.85 8.64561 215.515 7.00973 214.847 5.56735C214.196 4.12496 213.22 2.9904 211.918 2.16367C210.634 1.33694 209.025 0.923573 207.09 0.923573C205.155 0.923573 203.536 1.33694 202.235 2.16367C200.933 2.9904 199.948 4.12496 199.28 5.56735C198.629 7.00973 198.303 8.64561 198.303 10.475C198.303 12.2868 198.629 13.9138 199.28 15.3562C199.948 16.7986 200.933 17.9332 202.235 18.7599ZM210.731 16.9129C209.781 17.5814 208.567 17.9156 207.09 17.9156C205.612 17.9156 204.39 17.5726 203.422 16.8866C202.472 16.2005 201.769 15.2947 201.311 14.1689C200.854 13.0431 200.625 11.8118 200.625 10.475C200.625 9.12054 200.854 7.88044 201.311 6.75468C201.786 5.62891 202.499 4.72303 203.449 4.03701C204.416 3.351 205.63 3.00799 207.09 3.00799C208.18 3.00799 209.13 3.20149 209.939 3.58847C210.748 3.97545 211.417 4.51194 211.945 5.19796C212.472 5.88397 212.859 6.68432 213.105 7.599C213.369 8.49609 213.501 9.45475 213.501 10.475C213.501 11.8294 213.273 13.0695 212.815 14.1953C212.376 15.321 211.681 16.2269 210.731 16.9129ZM173.628 19.7888V1.13454H175.923V17.7044H186.161V19.7888H173.628ZM147.278 1.13454V19.7888H149.574V12.3218H158.518V10.211H149.574V3.21896H159.811V1.13454H147.278ZM119.358 19.7888V1.13454H126.35C127.388 1.13454 128.311 1.24008 129.121 1.45116C129.947 1.66224 130.651 1.99645 131.231 2.45379C131.812 2.91113 132.252 3.51799 132.551 4.27436C132.867 5.01314 133.026 5.91024 133.026 6.96564C133.026 8.00346 132.832 8.89175 132.445 9.63054C132.058 10.3517 131.548 10.941 130.915 11.3983C130.282 11.8557 129.596 12.1899 128.857 12.401L132.762 19.7888H130.255L126.535 12.7967H121.654V19.7888H119.358ZM121.654 10.7123H125.611C126.297 10.7123 126.939 10.6596 127.537 10.554C128.153 10.4485 128.69 10.2638 129.147 9.99993C129.622 9.71849 129.991 9.3315 130.255 8.83898C130.519 8.32887 130.66 7.67804 130.677 6.88649C130.695 5.98939 130.528 5.27699 130.176 4.74929C129.824 4.204 129.305 3.81702 128.619 3.58835C127.933 3.34209 127.098 3.21896 126.113 3.21896H121.654V10.7123ZM92.7007 1.13454V19.7888H105.234V17.7044H94.9962V11.6094H104.205V9.49861H94.9962V3.21896H105.234V1.13454H92.7007ZM69.1989 19.7888L62.2068 1.13454H64.7134L70.8611 17.8099L77.0089 1.13454H79.4891L72.5234 19.7888H69.1989ZM37.081 18.7599C38.3827 19.5866 40.001 20 41.9359 20C43.8708 20 45.4803 19.5866 46.7644 18.7599C48.0661 17.9332 49.0423 16.7986 49.6931 15.3562C50.3616 13.9138 50.6958 12.2868 50.6958 10.475C50.6958 8.64561 50.3616 7.00974 49.6931 5.56735C49.0423 4.12496 48.0661 2.99041 46.7644 2.16367C45.4803 1.33694 43.8708 0.923574 41.9359 0.923574C40.001 0.923574 38.3827 1.33694 37.081 2.16367C35.7794 2.99041 34.7943 4.12496 34.1259 5.56735C33.4751 7.00974 33.1497 8.64561 33.1497 10.475C33.1497 12.2868 33.4751 13.9138 34.1259 15.3562C34.7943 16.7986 35.7794 17.9332 37.081 18.7599ZM45.5771 16.9129C44.6272 17.5814 43.4135 17.9156 41.9359 17.9156C40.4583 17.9156 39.2358 17.5726 38.2684 16.8866C37.3185 16.2005 36.6149 15.2947 36.1576 14.1689C35.7002 13.0431 35.4716 11.8118 35.4716 10.475C35.4716 9.12054 35.7002 7.88044 36.1576 6.75468C36.6325 5.62891 37.3449 4.72303 38.2948 4.03702C39.2622 3.351 40.4759 3.008 41.9359 3.008C43.0265 3.008 43.9764 3.20149 44.7855 3.58847C45.5947 3.97545 46.2631 4.51195 46.7908 5.19796C47.3185 5.88397 47.7055 6.68432 47.9517 7.599C48.2156 8.4961 48.3475 9.45475 48.3475 10.475C48.3475 11.8294 48.1188 13.0695 47.6615 14.1953C47.2217 15.321 46.5269 16.2269 45.5771 16.9129Z" fill="white"/>
</svg>
